# xmcd
#
# Track frame offsets:
#	150
#	19932
#	48059
#
# Disc length: 1037 seconds
#
# Revision: 0
# Processed by: cddbd v1.5.2PL0 Copyright (c) Steve Scherf et al.
# Submitted via: audiograbber 1.83.01
#
DISCID=19040b03
DTITLE=Fiori Goldman - 4 mots sur un piano
DYEAR=2007
DGENRE=
TTITLE0=4 mots sur un piano
TTITLE1=N'oublie pas
TTITLE2=Piste de données
EXTD=
EXTT0=
EXTT1=
EXTT2=
PLAYORDER=
